<svg xmlns="http://www.w3.org/2000/svg" xmlns:xlink="http://www.w3.org/1999/xlink" width="200" height="30" viewBox="0 0 200 30">
  <defs>
    <polygon id="logo-a" points=".875 .736 15.146 .736 15.146 17.1 .875 17.1"/>
    <polygon id="logo-c" points=".002 .581 23.725 .581 23.725 29.449 .002 29.449"/>
  </defs>
  <g fill="none" fill-rule="evenodd" transform="translate(0 -1)">
    <polygon fill="#231F20" points="192.837 25.842 186.206 16.339 186.206 29.998 188.833 29.998 188.833 24.667 192.837 30.434 196.828 24.667 196.828 29.998 199.456 29.998 199.456 16.339"/>
    <g transform="translate(0 .618)">
      <path fill="#231F20" d="M184.317787 22.686683C184.317787 24.5720029 183.646945 26.1751661 182.296716 27.5004476 180.95076 28.8471047 179.36125 29.5225708 177.481185 29.5225708 175.592573 29.5225708 173.977426 28.8471047 172.635743 27.5004476 171.311151 26.1751661 170.636037 24.5720029 170.636037 22.686683 170.636037 20.8056382 171.311151 19.1768243 172.635743 17.8429926 173.977426 16.517711 175.592573 15.8379698 177.481185 15.8379698 179.36125 15.8379698 180.95076 16.517711 182.296716 17.8429926 183.646945 19.1768243 184.317787 20.8056382 184.317787 22.686683M181.689968 22.686683C181.689968 21.5238553 181.266953 20.5234814 180.450834 19.7026619 179.617623 18.8604668 178.626316 18.4714325 177.481185 18.4714325 176.306144 18.4714325 175.310563 18.8604668 174.485898 19.7026619 173.65696 20.5234814 173.272401 21.5238553 173.272401 22.686683 173.272401 23.8366854 173.65696 24.8370592 174.485898 25.6664289 175.310563 26.4829734 176.306144 26.8933832 177.481185 26.8933832 178.626316 26.8933832 179.617623 26.4829734 180.450834 25.6664289 181.266953 24.8370592 181.689968 23.8366854 181.689968 22.686683M170.343345 27.9181251C169.078573 29.046752 167.578794 29.5982401 165.848279 29.5982401 163.96394 29.5982401 162.361612 28.922774 161.015656 27.5932173 159.686791 26.2508354 159.003131 24.6647726 159.003131 22.7623523 159.003131 20.8684821 159.686791 19.2738692 161.015656 17.9400374 162.361612 16.5976554 163.96394 15.9307395 165.848279 15.9307395 167.531792 15.9307395 169.001662 16.4694023 170.257887 17.5339027 170.133974 17.6407803 170.018606 17.7433827 169.898966 17.8459851 169.377675 18.3931982 168.963206 18.9617867 168.634194 19.5987769 167.856531 18.9019353 166.916498 18.5513769 165.848279 18.5513769 164.681783 18.5513769 163.694749 18.9617867 162.874357 19.8039818 162.036873 20.6077009 161.63095 21.5952495 161.63095 22.7623523 161.63095 23.9337302 162.036873 24.9127285 162.874357 25.7292729 163.694749 26.571468 164.681783 26.9818778 165.848279 26.9818778 166.959227 26.9818778 167.886441 26.6184941 168.681196 25.8960019 169.001662 26.4645905 169.407585 27.0032533 169.898966 27.4991651 170.057062 27.661619 170.206613 27.7941471 170.343345 27.9181251"/>
      <path fill="#EC1D24" d="M156.216788 27.2080307C156.216788 27.81082 155.998871 28.3323825 155.588675 28.7556175 155.152842 29.1831277 154.640097 29.3797824 154.033348 29.3797824 153.435146 29.3797824 152.926673 29.1831277 152.482294 28.7556175 152.059279 28.3323825 151.845636 27.81082 151.845636 27.2080307 151.845636 26.5966911 152.059279 26.0665785 152.482294 25.668994 152.926673 25.2372087 153.435146 25.0191785 154.033348 25.0191785 154.640097 25.0191785 155.152842 25.2372087 155.588675 25.668994 155.998871 26.0665785 156.216788 26.5966911 156.216788 27.2080307M156.287718 14.1805128C156.287718 16.0701078 155.612603 17.716022 154.266647 19.0541289 152.920691 20.4050611 151.292725 21.0762521 149.391295 21.0762521L144.101474 21.0762521 144.101474 29.3613995 139.721776 29.3613995 139.721776 7.27194824 149.391295 7.27194824C151.292725 7.27194824 152.920691 7.95168943 154.266647 9.30262162 155.612603 10.662104 156.287718 12.2909178 156.287718 14.1805128M151.93793 14.1805128C151.93793 13.5050467 151.68583 12.885157 151.181631 12.4020705 150.681704 11.8890582 150.083501 11.6411023 149.391295 11.6411023L144.101474 11.6411023 144.101474 16.7113731 149.391295 16.7113731C150.083501 16.7113731 150.681704 16.4719674 151.181631 15.9546801 151.68583 15.4630434 151.93793 14.8688042 151.93793 14.1805128M136.988844 29.362682L132.156221 29.362682 130.848721 26.6565425 121.794496 26.6565425 120.529724 29.362682 115.675737 29.362682 126.323745 6.8713712 136.988844 29.362682zM128.840469 22.3344146L126.323745 17.0760393 123.836931 22.3344146 128.840469 22.3344146z"/>
      <polygon fill="#EC1D24" points="113.363 29.363 95.724 29.363 95.724 7.273 100.792 7.273 100.792 24.284 113.363 24.284"/>
      <path fill="#231F20" d="M93.3379937,29.4503216 L90.0649704,29.4503216 L87.7234341,23.6703839 L84.8349697,23.6703839 L84.8349697,29.4503216 L81.7926817,29.4503216 L81.7926817,14.0514047 L88.5267349,14.0514047 C89.8555994,14.0514047 90.9921846,14.5173908 91.9407631,15.4579133 C92.8807959,16.4069859 93.3379937,17.5356127 93.3379937,18.8523441 C93.3379937,19.7586657 93.1158041,20.5880355 92.6500606,21.3575538 C92.1672256,22.1142468 91.56475,22.6999358 90.7828136,23.1146207 L93.3379937,29.4503216 Z M90.2957057,18.8523441 C90.2957057,18.3820829 90.1333364,17.9502976 89.7829605,17.6040144 C89.4197661,17.2705564 89.0138428,17.082452 88.5267349,17.082452 L84.8349697,17.082452 L84.8349697,20.6222363 L88.5267349,20.6222363 C89.0138428,20.6222363 89.4197661,20.4555073 89.7829605,20.0878486 C90.1333364,19.7501155 90.2957057,19.3397057 90.2957057,18.8523441 Z"/>
      <polygon fill="#231F20" points="79.436 29.45 69.344 29.45 69.344 14.051 78.966 14.051 78.966 17.082 72.365 17.082 72.365 20.148 78.466 20.148 78.466 23.183 72.365 23.183 72.365 26.385 79.436 26.385"/>
      <polygon fill="#231F20" points="66.983 17.084 61.458 17.084 61.458 29.452 58.407 29.452 58.407 17.084 52.882 17.084 52.882 14.053 66.983 14.053"/>
      <g transform="translate(35.208 12.825)">
        <mask id="logo-b" fill="#fff">
          <use xlink:href="#logo-a"/>
        </mask>
        <polygon fill="#231F20" points="15.146 17.101 3.913 7.401 3.913 16.626 .875 16.626 .875 .736 12.087 10.449 12.087 1.227 15.146 1.227" mask="url(#logo-b)"/>
      </g>
      <polygon fill="#231F20" points="33.716 29.45 23.61 29.45 23.61 14.051 33.233 14.051 33.233 17.082 26.665 17.082 26.665 20.148 32.75 20.148 32.75 23.183 26.665 23.183 26.665 26.385 33.716 26.385"/>
      <mask id="logo-d" fill="#fff">
        <use xlink:href="#logo-c"/>
      </mask>
      <path fill="#231F20" d="M20.306845,28.2477354 C18.512237,29.0471795 16.5509867,29.4490391 14.4273671,29.4490391 C10.4450463,29.4490391 7.04383673,28.0382555 4.23228406,25.2337886 C1.41645852,22.395121 0.00213643819,19.0006902 0.00213643819,15.0120201 C0.00213643819,11.0276252 1.41645852,7.64601965 4.23228406,4.80307692 C7.04383673,1.99861011 10.4450463,0.5792763 14.4273671,0.5792763 C17.9824003,0.5792763 21.0973272,1.71645339 23.7251461,3.98225737 C23.4773193,4.19173736 23.246584,4.40121735 23.0201215,4.64489815 C21.8664449,5.76924994 20.9734138,6.99620417 20.3025722,8.31721064 C18.6404232,6.86795111 16.679173,6.11980829 14.4273671,6.11980829 C11.9704632,6.11980829 9.87675377,6.98765397 8.13342021,8.74472082 C6.39008664,10.4590367 5.54832999,12.5495615 5.54832999,15.0120201 C5.54832999,17.4744788 6.39008664,19.5778289 8.13342021,21.3006949 C9.87675377,23.0534867 11.9704632,23.9085071 14.4273671,23.9085071 C16.679173,23.9085071 18.6404232,23.1817398 20.306845,21.7196549 L20.306845,28.2477354 Z" mask="url(#logo-d)"/>
    </g>
  </g>
</svg>
